<?xml version="1.0" encoding="UTF-8" standalone="no"?><svg xmlns="http://www.w3.org/2000/svg" xmlns:xlink="http://www.w3.org/1999/xlink" clip-rule="evenodd" stroke-miterlimit="4.00" viewBox="0 0 1024 768"><desc>SVG generated by Keynote</desc><defs></defs><g transform="matrix(1.00, 0.00, -0.00, -1.00, 0.0, 768.0)"><g><clipPath id="clip-637"><path d="M 0.0 768.0 L 1024.0 768.0 L 1024.0 0.0 L 0.0 0.0 Z M 0.0 768.0 "></path></clipPath><g clip-path="url(#clip-637)"><image xlink:href="../../06DBE9C8-52A0-453A-A7BF-EBF58CF01F35/assets/E7ABA782A15EA3475B4CFCC80A2FEB63.jpeg" width="1024.00" height="768.00" transform="matrix(1.00, 0.00, -0.00, -1.00, 0.0, 768.0)"></image></g></g><g><clipPath id="clip-638"><path d="M 529.0 367.0 L 949.0 367.0 L 949.0 78.0 L 529.0 78.0 Z M 529.0 366.5 "></path></clipPath><g clip-path="url(#clip-638)"><image xlink:href="C900E2746ED05E2846A84FE2562D83CC.png" width="421.00" height="263.00" transform="matrix(1.00, 0.00, -0.00, -1.00, 529.0, 344.0)"></image></g></g><g><clipPath id="clip-639"><path d="M 80.0 708.0 L 490.0 708.0 L 490.0 75.0 L 80.0 75.0 Z M 79.8 707.9 "></path></clipPath><g clip-path="url(#clip-639)"><image xlink:href="FBF7B729FF2F0C14FD9FE8965E1B17ED.png" width="1014.00" height="633.00" transform="matrix(1.00, 0.00, -0.00, -1.00, -222.0, 708.0)"></image></g></g><image xlink:href="5066490BADE18675C001F10C42D8F806.png" width="421.00" height="213.00" transform="matrix(1.00, 0.00, -0.00, -1.44, 529.0, 708.0)"></image></g></svg>