<?xml version="1.0" encoding="UTF-8" standalone="no"?><svg xmlns="http://www.w3.org/2000/svg" xmlns:xlink="http://www.w3.org/1999/xlink" clip-rule="evenodd" stroke-miterlimit="4.00" viewBox="0 0 1024 768"><desc>SVG generated by Keynote</desc><defs></defs><g transform="matrix(1.00, 0.00, -0.00, -1.00, 0.0, 768.0)"><g><clipPath id="clip-629"><path d="M 0.0 768.0 L 1024.0 768.0 L 1024.0 0.0 L 0.0 0.0 Z M 0.0 768.0 "></path></clipPath><g clip-path="url(#clip-629)"><image xlink:href="../../06DBE9C8-52A0-453A-A7BF-EBF58CF01F35/assets/E7ABA782A15EA3475B4CFCC80A2FEB63.jpeg" width="1024.00" height="768.00" transform="matrix(1.00, 0.00, -0.00, -1.00, 0.0, 768.0)"></image></g></g><text xml:space="preserve" font-family="Helvetica-Light" font-size="80.0" fill="#FEFFFF" transform="matrix(1.00, 0.00, -0.00, -1.00, 197.0, 427.0)">M</text><text xml:space="preserve" font-family="Helvetica-Light" font-size="80.0" fill="#FEFFFF" transform="matrix(1.00, 0.00, -0.00, -1.00, 263.6, 427.0)">i</text><text xml:space="preserve" font-family="Helvetica-Light" font-size="80.0" fill="#FEFFFF" transform="matrix(1.00, 0.00, -0.00, -1.00, 281.4, 427.0)">k</text><text xml:space="preserve" font-family="Helvetica-Light" font-size="80.0" fill="#FEFFFF" transform="matrix(1.00, 0.00, -0.00, -1.00, 321.4, 427.0)">h</text><text xml:space="preserve" font-family="Helvetica-Light" font-size="80.0" fill="#FEFFFF" transform="matrix(1.00, 0.00, -0.00, -1.00, 365.9, 427.0)">a</text><text xml:space="preserve" font-family="Helvetica-Light" font-size="80.0" fill="#FEFFFF" transform="matrix(1.00, 0.00, -0.00, -1.00, 410.4, 427.0)">i</text><text xml:space="preserve" font-family="Helvetica-Light" font-size="80.0" fill="#FEFFFF" transform="matrix(1.00, 0.00, -0.00, -1.00, 428.1, 427.0)">l</text><text xml:space="preserve" font-family="Helvetica-Light" font-size="80.0" fill="#FEFFFF" transform="matrix(1.00, 0.00, -0.00, -1.00, 445.9, 427.0)"> </text><text xml:space="preserve" font-family="Helvetica-Light" font-size="80.0" fill="#FEFFFF" transform="matrix(1.00, 0.00, -0.00, -1.00, 468.1, 427.0)">P</text><text xml:space="preserve" font-family="Helvetica-Light" font-size="80.0" fill="#FEFFFF" transform="matrix(1.00, 0.00, -0.00, -1.00, 517.0, 427.0)">o</text><text xml:space="preserve" font-family="Helvetica-Light" font-size="80.0" fill="#FEFFFF" transform="matrix(1.00, 0.00, -0.00, -1.00, 561.5, 427.0)">g</text><text xml:space="preserve" font-family="Helvetica-Light" font-size="80.0" fill="#FEFFFF" transform="matrix(1.00, 0.00, -0.00, -1.00, 610.4, 427.0)">o</text><text xml:space="preserve" font-family="Helvetica-Light" font-size="80.0" fill="#FEFFFF" transform="matrix(1.00, 0.00, -0.00, -1.00, 654.8, 427.0)">r</text><text xml:space="preserve" font-family="Helvetica-Light" font-size="80.0" fill="#FEFFFF" transform="matrix(1.00, 0.00, -0.00, -1.00, 680.0, 427.0)">e</text><text xml:space="preserve" font-family="Helvetica-Light" font-size="80.0" fill="#FEFFFF" transform="matrix(1.00, 0.00, -0.00, -1.00, 724.5, 427.0)">l</text><text xml:space="preserve" font-family="Helvetica-Light" font-size="80.0" fill="#FEFFFF" transform="matrix(1.00, 0.00, -0.00, -1.00, 742.3, 427.0)">o</text><text xml:space="preserve" font-family="Helvetica-Light" font-size="80.0" fill="#FEFFFF" transform="matrix(1.00, 0.00, -0.00, -1.00, 786.8, 427.0)">v</text><text xml:space="preserve" font-family="Helvetica-Bold" font-weight="bold" font-size="28.0" fill="#FEFFFE" transform="matrix(1.00, 0.00, -0.00, -1.00, 327.0, 337.0)">H</text><text xml:space="preserve" font-family="Helvetica-Bold" font-weight="bold" font-size="28.0" fill="#FEFFFE" transform="matrix(1.00, 0.00, -0.00, -1.00, 347.2, 337.0)">e</text><text xml:space="preserve" font-family="Helvetica-Bold" font-weight="bold" font-size="28.0" fill="#FEFFFE" transform="matrix(1.00, 0.00, -0.00, -1.00, 362.8, 337.0)">a</text><text xml:space="preserve" font-family="Helvetica-Bold" font-weight="bold" font-size="28.0" fill="#FEFFFE" transform="matrix(1.00, 0.00, -0.00, -1.00, 378.4, 337.0)">d</text><text xml:space="preserve" font-family="Helvetica-Bold" font-weight="bold" font-size="28.0" fill="#FEFFFE" transform="matrix(1.00, 0.00, -0.00, -1.00, 395.5, 337.0)"> </text><text xml:space="preserve" font-family="Helvetica-Bold" font-weight="bold" font-size="28.0" fill="#FEFFFE" transform="matrix(1.00, 0.00, -0.00, -1.00, 403.3, 337.0)">C</text><text xml:space="preserve" font-family="Helvetica-Bold" font-weight="bold" font-size="28.0" fill="#FEFFFE" transform="matrix(1.00, 0.00, -0.00, -1.00, 423.5, 337.0)">h</text><text xml:space="preserve" font-family="Helvetica-Bold" font-weight="bold" font-size="28.0" fill="#FEFFFE" transform="matrix(1.00, 0.00, -0.00, -1.00, 440.6, 337.0)">i</text><text xml:space="preserve" font-family="Helvetica-Bold" font-weight="bold" font-size="28.0" fill="#FEFFFE" transform="matrix(1.00, 0.00, -0.00, -1.00, 448.4, 337.0)">e</text><text xml:space="preserve" font-family="Helvetica-Bold" font-weight="bold" font-size="28.0" fill="#FEFFFE" transform="matrix(1.00, 0.00, -0.00, -1.00, 463.9, 337.0)">f</text><text xml:space="preserve" font-family="Helvetica-Bold" font-weight="bold" font-size="28.0" fill="#FEFFFE" transform="matrix(1.00, 0.00, -0.00, -1.00, 473.3, 337.0)"> </text><text xml:space="preserve" font-family="Helvetica-Bold" font-weight="bold" font-size="28.0" fill="#FEFFFE" transform="matrix(1.00, 0.00, -0.00, -1.00, 481.0, 337.0)">o</text><text xml:space="preserve" font-family="Helvetica-Bold" font-weight="bold" font-size="28.0" fill="#FEFFFE" transform="matrix(1.00, 0.00, -0.00, -1.00, 498.1, 337.0)">f</text><text xml:space="preserve" font-family="Helvetica-Bold" font-weight="bold" font-size="28.0" fill="#FEFFFE" transform="matrix(1.00, 0.00, -0.00, -1.00, 507.4, 337.0)"> </text><text xml:space="preserve" font-family="Helvetica-Bold" font-weight="bold" font-size="28.0" fill="#FEFFFE" transform="matrix(1.00, 0.00, -0.00, -1.00, 515.2, 337.0)">L</text><text xml:space="preserve" font-family="Helvetica-Bold" font-weight="bold" font-size="28.0" fill="#FEFFFE" transform="matrix(1.00, 0.00, -0.00, -1.00, 532.3, 337.0)">.</text><text xml:space="preserve" font-family="Helvetica-Bold" font-weight="bold" font-size="28.0" fill="#FEFFFE" transform="matrix(1.00, 0.00, -0.00, -1.00, 540.1, 337.0)">M</text><text xml:space="preserve" font-family="Helvetica-Bold" font-weight="bold" font-size="28.0" fill="#FEFFFE" transform="matrix(1.00, 0.00, -0.00, -1.00, 563.4, 337.0)">.</text><text xml:space="preserve" font-family="Helvetica-Bold" font-weight="bold" font-size="28.0" fill="#FEFFFE" transform="matrix(1.00, 0.00, -0.00, -1.00, 571.2, 337.0)">A</text><text xml:space="preserve" font-family="Helvetica-Bold" font-weight="bold" font-size="28.0" fill="#FEFFFE" transform="matrix(1.00, 0.00, -0.00, -1.00, 591.4, 337.0)">.</text><text xml:space="preserve" font-family="Helvetica-Bold" font-weight="bold" font-size="28.0" fill="#FEFFFE" transform="matrix(1.00, 0.00, -0.00, -1.00, 599.2, 337.0)">C</text><text xml:space="preserve" font-family="Helvetica-Bold" font-weight="bold" font-size="28.0" fill="#FEFFFE" transform="matrix(1.00, 0.00, -0.00, -1.00, 619.4, 337.0)">.</text><text xml:space="preserve" font-family="Helvetica-Bold" font-weight="bold" font-size="28.0" fill="#FEFFFE" transform="matrix(1.00, 0.00, -0.00, -1.00, 627.2, 337.0)">K</text><text xml:space="preserve" font-family="Helvetica-Bold" font-weight="bold" font-size="28.0" fill="#FEFFFE" transform="matrix(1.00, 0.00, -0.00, -1.00, 647.4, 337.0)">.</text><text xml:space="preserve" font-family="Helvetica-Bold" font-weight="bold" font-size="28.0" fill="#FEFFFE" transform="matrix(1.00, 0.00, -0.00, -1.00, 655.2, 337.0)">V</text><text xml:space="preserve" font-family="Helvetica-Bold" font-weight="bold" font-size="28.0" fill="#FEFFFE" transform="matrix(1.00, 0.00, -0.00, -1.00, 671.3, 337.0)">.</text><text xml:space="preserve" font-family="Helvetica-Bold" font-weight="bold" font-size="28.0" fill="#FEFFFE" transform="matrix(1.00, 0.00, -0.00, -1.00, 679.1, 337.0)">Y</text></g></svg>